<svg width="256" height="257" viewBox="0 0 256 257" fill="none" xmlns="http://www.w3.org/2000/svg">
<g clip-path="url(#clip0_4944_22)">
<path d="M198.948 0.550293H56.8651C25.4768 0.550293 0.0316162 25.9955 0.0316162 57.3838V199.467C0.0316162 230.855 25.4768 256.301 56.8651 256.301H198.948C230.337 256.301 255.782 230.855 255.782 199.467V57.3838C255.782 25.9955 230.337 0.550293 198.948 0.550293Z" fill="#0C0A09"/>
<path d="M56.865 57.3838C93.194 57.3838 122.645 86.8343 122.645 123.163V199.467C86.3155 199.467 56.865 170.017 56.865 133.688V57.3838Z" fill="white"/>
<path d="M133.169 166.581C133.169 148.418 147.896 133.695 166.059 133.695C184.222 133.695 198.948 148.418 198.948 166.581C198.948 184.744 184.222 199.467 166.059 199.467C147.896 199.467 133.169 184.744 133.169 166.581Z" fill="white"/>
</g>
<defs>
<clipPath id="clip0_4944_22">
<rect width="256" height="256" fill="white" transform="translate(0.000488281 0.5)"/>
</clipPath>
</defs>
</svg>
