<svg width="257" height="257" viewBox="0 0 257 257" fill="none" xmlns="http://www.w3.org/2000/svg">
<g clip-path="url(#clip0_4944_18)">
<path d="M199.611 0.550293H57.389C25.9701 0.550293 0.5 25.9955 0.5 57.3838V199.467C0.5 230.855 25.9701 256.301 57.389 256.301H199.611C231.03 256.301 256.5 230.855 256.5 199.467V57.3838C256.5 25.9955 231.03 0.550293 199.611 0.550293Z" fill="white"/>
<path d="M57.3889 57.3838C93.7534 57.3838 123.233 86.8343 123.233 123.163V199.468C86.8682 199.468 57.3889 170.017 57.3889 133.688V57.3838Z" fill="#0C0A09"/>
<path d="M133.768 166.581C133.768 148.418 148.509 133.695 166.689 133.695C184.87 133.695 199.611 148.418 199.611 166.581C199.611 184.744 184.87 199.468 166.689 199.468C148.509 199.468 133.768 184.744 133.768 166.581Z" fill="#0C0A09"/>
</g>
<defs>
<clipPath id="clip0_4944_18">
<rect width="256" height="256" fill="white" transform="translate(0.5 0.5)"/>
</clipPath>
</defs>
</svg>
